<svg width="122" height="36" viewBox="0 0 122 36" fill="none" xmlns="http://www.w3.org/2000/svg">
    <path fill-rule="evenodd" clip-rule="evenodd" d="M19.2832 0.155029L0.206055 35.5721H23.7166C23.7019 35.5674 23.6878 35.5621 23.6747 35.5566L22.6941 34.0727C19.3747 32.7158 17.8472 31.0862 17.1907 28.9806C18.3089 29.5584 19.5135 29.4818 20.0393 29.3466C18.8021 29.3962 17.5737 28.3096 16.8674 27.469C16.7167 26.3279 16.7244 25.0617 16.7828 23.6467C17.3385 24.0408 18.2697 24.0312 18.7236 23.9641C18.0346 23.9219 17.2996 23.2516 16.8804 22.7631C17.1084 19.9821 16.4343 18.2736 16.0311 17.735C17.9596 18.0465 19.5282 18.7427 20.7194 19.5031C20.7321 19.564 20.7448 19.6241 20.7574 19.6833L20.7574 19.6834L20.7574 19.6834C20.9554 20.6195 21.1121 21.36 20.5955 22.437C21.1105 22.1193 21.6688 21.2962 21.6853 20.1931C22.4494 20.8034 22.9732 21.3939 23.2481 21.8052C23.6597 22.306 23.9424 22.9187 24.1278 23.5891C23.7606 24.8076 22.9406 26.6178 21.7091 26.9416C22.3229 26.9277 23.55 26.629 24.4208 25.6364C24.4963 27.65 24.0648 29.7059 23.7866 30.673C23.3785 31.7734 23.1949 33.2865 23.1541 33.9056C23.3405 34.1461 23.781 34.7416 24.052 35.1998C24.0967 35.4235 24.0443 35.53 23.9601 35.5721H38.3603L19.2832 0.155029ZM42.125 35.5722V0.165039H49.663V35.5722H42.125ZM83.7612 29.2552V35.5722H71.3926C69.0569 35.5722 67.2698 35.4483 66.0311 35.2006C61.6782 34.3512 58.5816 31.9271 56.7414 27.9281C55.5382 25.2385 54.9365 21.9119 54.9365 17.9482C54.9365 13.206 55.8567 9.3486 57.6969 6.37589C59.0417 4.21713 60.8289 2.6423 63.0584 1.6514C65.3233 0.660491 68.2253 0.165039 71.7642 0.165039H83.7612V6.48206H72.6136C69.2516 6.48206 66.792 7.38449 65.2349 9.18935C63.9254 10.6757 63.2707 13.3653 63.2707 17.2581C63.2707 22.4958 64.2793 25.9286 66.2965 27.5565C67.7121 28.6889 69.924 29.2552 72.9321 29.2552H83.7612ZM104.063 0.165039H89.0402V35.5722H104.063C107.354 35.5722 109.796 35.4306 111.389 35.1475C113.017 34.829 114.503 34.2451 115.848 33.3957C117.971 32.0155 119.493 29.8745 120.413 26.9725C121.333 24.1414 121.793 21.1333 121.793 17.9482C121.793 14.7278 121.315 11.702 120.36 8.87084C119.086 5.19034 116.555 2.66 112.769 1.27981C110.716 0.536629 107.814 0.165039 104.063 0.165039ZM96.5781 29.2552V6.48206H104.063C106.965 6.48206 109.088 7.08368 110.433 8.28692C111.353 9.13626 112.096 10.428 112.663 12.1621C113.229 13.8961 113.512 15.8072 113.512 17.8952C113.512 19.7708 113.264 21.5403 112.769 23.2036C112.309 24.8669 111.689 26.1586 110.911 27.0787C109.637 28.5297 107.354 29.2552 104.063 29.2552H96.5781Z" fill="#29953A"/>
</svg>
