<svg width="121" height="36" viewBox="0 0 121 36" xmlns="http://www.w3.org/2000/svg">
    <path fill-rule="evenodd" clip-rule="evenodd" d="M19.0771 0L0 35.4171H23.5107C23.4961 35.4124 23.4821 35.4071 23.469 35.4016L22.4884 33.9177C19.1689 32.5607 17.6413 30.931 16.9849 28.8252C18.1034 29.4036 19.3084 29.327 19.8344 29.1917C18.5967 29.2413 17.3677 28.1537 16.6616 27.313C16.511 26.172 16.5188 24.906 16.5771 23.4912C17.1327 23.8859 18.0646 23.8763 18.5187 23.8092C17.8293 23.7669 17.0939 23.0959 16.6748 22.6074C16.9026 19.8268 16.2286 18.1185 15.8254 17.58C17.7545 17.8916 19.3234 18.5881 20.5147 19.3487C20.5273 19.4094 20.54 19.4693 20.5525 19.5284L20.5525 19.5284L20.5525 19.5285C20.7506 20.4646 20.9072 21.2051 20.3906 22.2821C20.9055 21.9644 21.4637 21.1416 21.4804 20.0387C22.2441 20.6488 22.7677 21.2391 23.0424 21.6502C23.4543 22.1514 23.7371 22.7646 23.9225 23.4355C23.5552 24.654 22.7352 26.463 21.5042 26.7866C22.1179 26.7728 23.3444 26.4743 24.2152 25.4823C24.2905 27.4956 23.8591 29.5511 23.5809 30.518C23.1728 31.6184 22.9892 33.1316 22.9484 33.7506C23.1348 33.9911 23.5753 34.5866 23.8463 35.0448C23.891 35.2685 23.8386 35.375 23.7546 35.4171H38.1542L19.0771 0ZM41.7637 35.41V0H49.3022V35.41H41.7637ZM83.4033 29.0925V35.41H71.0337C68.6978 35.41 66.9105 35.2861 65.6717 35.0384C61.3185 34.189 58.2216 31.7646 56.3812 27.7653C55.1779 25.0754 54.5762 21.7486 54.5762 17.7846C54.5762 13.0421 55.4964 9.1843 57.3368 6.21135C58.6817 4.05242 60.4691 2.47746 62.6988 1.48648C64.9639 0.495493 67.8661 0 71.4053 0H83.4033V6.31753H72.2547C68.8924 6.31753 66.4327 7.22003 64.8754 9.02504C63.5659 10.5115 62.9111 13.2013 62.9111 17.0945C62.9111 22.3325 63.9198 25.7656 65.9372 27.3936C67.3529 28.5262 69.5649 29.0925 72.5732 29.0925H83.4033ZM96.2212 35.41V23.0404H108.325C110.378 23.0404 111.988 22.8634 113.156 22.5095C114.36 22.1556 115.492 21.5185 116.554 20.5983C117.722 19.5719 118.625 18.2624 119.262 16.6698C119.934 15.0417 120.27 13.3252 120.27 11.5202C120.27 9.36126 119.775 7.3616 118.784 5.5212C117.439 3.07913 115.599 1.46878 113.263 0.69015C111.882 0.23005 109.582 0 106.361 0H88.6827V35.41H96.2212ZM106.467 16.7229H96.2212V6.31753H106.627C107.936 6.31753 108.892 6.4414 109.493 6.68915C111.157 7.3616 111.988 8.88347 111.988 11.2548C111.988 13.4491 111.44 14.9886 110.343 15.8734C109.6 16.4397 108.308 16.7229 106.467 16.7229Z" fill="#29953A"/>
</svg>
