<svg viewBox="0 0 68 11" fill="none" xmlns="http://www.w3.org/2000/svg">
    <path d="M6.58894 5.31539C6.58894 6.03463 6.45062 6.63593 6.17399 7.11931C5.90028 7.59977 5.5028 7.9623 4.98157 8.2069C4.46034 8.44858 3.83283 8.56943 3.09904 8.56943H1.29075V2.18365H3.29559C3.96532 2.18365 4.54625 2.30304 5.03836 2.54181C5.53046 2.77767 5.91192 3.12856 6.18273 3.59446C6.45353 4.05745 6.58894 4.63109 6.58894 5.31539ZM5.18249 5.35033C5.18249 4.8786 5.11261 4.49132 4.97284 4.18849C4.83598 3.88274 4.63215 3.65707 4.36134 3.51147C4.09345 3.36588 3.76149 3.29308 3.36547 3.29308H2.64478V7.45126H3.2257C3.8867 7.45126 4.37736 7.27509 4.69766 6.92275C5.02088 6.57041 5.18249 6.04627 5.18249 5.35033ZM9.13975 3.68618V8.56943H7.80756V3.68618H9.13975ZM8.47584 1.77307C8.67385 1.77307 8.8442 1.81966 8.98688 1.91284C9.12956 2.00311 9.2009 2.17346 9.2009 2.42388C9.2009 2.67139 9.12956 2.84319 8.98688 2.93928C8.8442 3.03247 8.67385 3.07906 8.47584 3.07906C8.27492 3.07906 8.10312 3.03247 7.96044 2.93928C7.82067 2.84319 7.75078 2.67139 7.75078 2.42388C7.75078 2.17346 7.82067 2.00311 7.96044 1.91284C8.10312 1.81966 8.27492 1.77307 8.47584 1.77307ZM11.9701 10.7184C11.2887 10.7184 10.7675 10.599 10.4064 10.3602C10.0483 10.1244 9.86918 9.79242 9.86918 9.36437C9.86918 9.07027 9.96091 8.82422 10.1444 8.62621C10.3278 8.4282 10.5972 8.28697 10.9524 8.20253C10.8155 8.14429 10.6962 8.04965 10.5942 7.91862C10.4923 7.78467 10.4414 7.64345 10.4414 7.49494C10.4414 7.30858 10.4952 7.15425 10.603 7.03195C10.7107 6.90674 10.8665 6.78444 11.0703 6.66505C10.8141 6.5544 10.6103 6.37677 10.4588 6.13217C10.3103 5.88758 10.2361 5.5993 10.2361 5.26734C10.2361 4.91209 10.3132 4.61071 10.4676 4.3632C10.6248 4.11278 10.8519 3.92205 11.149 3.79101C11.4489 3.65998 11.8129 3.59446 12.2409 3.59446C12.3312 3.59446 12.436 3.60028 12.5554 3.61193C12.6748 3.62358 12.784 3.63668 12.883 3.65124C12.9849 3.6658 13.0533 3.67745 13.0883 3.68618H14.7917V4.3632L14.0274 4.55975C14.0973 4.66749 14.1497 4.78251 14.1846 4.90481C14.2195 5.02711 14.237 5.15669 14.237 5.29355C14.237 5.81769 14.0536 6.22681 13.6867 6.52091C13.3227 6.8121 12.816 6.9577 12.1667 6.9577C12.0123 6.94896 11.8667 6.93731 11.7299 6.92275C11.6629 6.97517 11.612 7.03049 11.577 7.08873C11.5421 7.14697 11.5246 7.20812 11.5246 7.27218C11.5246 7.33624 11.5508 7.39011 11.6032 7.43379C11.6585 7.47456 11.7401 7.50659 11.8478 7.52988C11.9585 7.55027 12.0953 7.56046 12.2584 7.56046H13.0883C13.6241 7.56046 14.0317 7.67548 14.3113 7.90552C14.5937 8.13556 14.735 8.47334 14.735 8.91885C14.735 9.48959 14.4962 9.93219 14.0186 10.2467C13.544 10.5612 12.8612 10.7184 11.9701 10.7184ZM12.0269 9.8492C12.3443 9.8492 12.6166 9.81863 12.8437 9.75748C13.0737 9.69924 13.2499 9.6148 13.3722 9.50414C13.4945 9.3964 13.5556 9.26683 13.5556 9.11541C13.5556 8.99311 13.5192 8.89556 13.4464 8.82276C13.3766 8.75288 13.2688 8.70337 13.1232 8.67426C12.9805 8.64514 12.7971 8.63058 12.5729 8.63058H11.8828C11.7197 8.63058 11.5726 8.65678 11.4416 8.7092C11.3135 8.76161 11.2116 8.83441 11.1359 8.92759C11.0601 9.02368 11.0223 9.13433 11.0223 9.25955C11.0223 9.443 11.1096 9.58713 11.2844 9.69196C11.462 9.79679 11.7095 9.8492 12.0269 9.8492ZM12.2409 6.14528C12.4913 6.14528 12.6748 6.06811 12.7913 5.91378C12.9077 5.75945 12.966 5.5498 12.966 5.28481C12.966 4.99071 12.9048 4.77086 12.7825 4.62527C12.6631 4.47676 12.4826 4.40251 12.2409 4.40251C11.9963 4.40251 11.8129 4.47676 11.6906 4.62527C11.5683 4.77086 11.5071 4.99071 11.5071 5.28481C11.5071 5.5498 11.5668 5.75945 11.6862 5.91378C11.8085 6.06811 11.9934 6.14528 12.2409 6.14528ZM16.932 3.68618V8.56943H15.5998V3.68618H16.932ZM16.2681 1.77307C16.4661 1.77307 16.6364 1.81966 16.7791 1.91284C16.9218 2.00311 16.9931 2.17346 16.9931 2.42388C16.9931 2.67139 16.9218 2.84319 16.7791 2.93928C16.6364 3.03247 16.4661 3.07906 16.2681 3.07906C16.0671 3.07906 15.8953 3.03247 15.7527 2.93928C15.6129 2.84319 15.543 2.67139 15.543 2.42388C15.543 2.17346 15.6129 2.00311 15.7527 1.91284C15.8953 1.81966 16.0671 1.77307 16.2681 1.77307ZM20.3913 7.5954C20.5369 7.5954 20.6781 7.58084 20.815 7.55172C20.9548 7.5226 21.0931 7.4862 21.2299 7.44253V8.43402C21.0872 8.49809 20.9096 8.5505 20.6971 8.59127C20.4874 8.63495 20.2574 8.65678 20.0069 8.65678C19.7157 8.65678 19.4537 8.61019 19.2207 8.51701C18.9907 8.42092 18.8087 8.2564 18.6747 8.02345C18.5437 7.78758 18.4782 7.46 18.4782 7.04068V4.68642H17.8405V4.12297L18.5743 3.67745L18.9587 2.64664H19.8104V3.68618H21.1775V4.68642H19.8104V7.04068C19.8104 7.22705 19.8628 7.36682 19.9676 7.46C20.0754 7.55027 20.2166 7.5954 20.3913 7.5954ZM24.2219 3.58572C24.8771 3.58572 25.3794 3.72841 25.7288 4.01377C26.0782 4.29914 26.2529 4.73301 26.2529 5.31539V8.56943H25.3226L25.0649 7.90552H25.0299C24.8902 8.08023 24.7475 8.22291 24.6019 8.33356C24.4563 8.44422 24.2889 8.52575 24.0996 8.57816C23.9103 8.63058 23.6803 8.65678 23.4095 8.65678C23.1212 8.65678 22.862 8.60146 22.632 8.49081C22.4049 8.38015 22.2258 8.21126 22.0948 7.98414C21.9637 7.7541 21.8982 7.46291 21.8982 7.11057C21.8982 6.59225 22.0802 6.2108 22.4442 5.9662C22.8082 5.71869 23.3542 5.58183 24.0821 5.55562L24.9295 5.52941V5.31539C24.9295 5.05914 24.8625 4.87132 24.7286 4.75194C24.5946 4.63255 24.4083 4.57286 24.1695 4.57286C23.9336 4.57286 23.7021 4.60634 23.475 4.67332C23.2479 4.74029 23.0207 4.82473 22.7936 4.92665L22.3525 4.02688C22.6116 3.89002 22.9014 3.78228 23.2217 3.70366C23.5449 3.62504 23.8783 3.58572 24.2219 3.58572ZM24.9295 6.30689L24.4141 6.32436C23.9831 6.33601 23.6832 6.41317 23.5143 6.55585C23.3483 6.69854 23.2653 6.88635 23.2653 7.11931C23.2653 7.32314 23.325 7.46873 23.4444 7.55609C23.5638 7.64053 23.7196 7.68276 23.9118 7.68276C24.1971 7.68276 24.4374 7.59831 24.6325 7.42942C24.8305 7.26053 24.9295 7.0203 24.9295 6.70873V6.30689ZM28.961 8.56943H27.6288V1.77307H28.961V8.56943ZM37.8277 3.21883C37.5686 3.21883 37.3385 3.26978 37.1376 3.3717C36.9396 3.4707 36.7722 3.61484 36.6353 3.80412C36.5013 3.99339 36.3994 4.22197 36.3295 4.48987C36.2597 4.75776 36.2247 5.05914 36.2247 5.39401C36.2247 5.84535 36.28 6.23118 36.3907 6.55149C36.5043 6.86888 36.679 7.11203 36.9148 7.28092C37.1507 7.44689 37.455 7.52988 37.8277 7.52988C38.0869 7.52988 38.346 7.50076 38.6052 7.44253C38.8673 7.38429 39.1512 7.3013 39.4569 7.19356V8.3292C39.1745 8.44567 38.8964 8.52866 38.6227 8.57816C38.3489 8.63058 38.0417 8.65678 37.701 8.65678C37.043 8.65678 36.5013 8.52138 36.0762 8.25058C35.654 7.97686 35.341 7.5954 35.1371 7.1062C34.9333 6.61409 34.8314 6.04045 34.8314 5.38527C34.8314 4.9019 34.8969 4.45929 35.0279 4.05745C35.159 3.65561 35.3511 3.30764 35.6045 3.01354C35.8578 2.71944 36.1708 2.49231 36.5436 2.33216C36.9163 2.172 37.3443 2.09192 37.8277 2.09192C38.1451 2.09192 38.4625 2.13269 38.7799 2.21422C39.1002 2.29284 39.406 2.40204 39.6971 2.54181L39.2604 3.64251C39.0216 3.52894 38.7814 3.42994 38.5397 3.34549C38.298 3.26105 38.0607 3.21883 37.8277 3.21883ZM42.7153 3.58572C43.3705 3.58572 43.8728 3.72841 44.2222 4.01377C44.5717 4.29914 44.7464 4.73301 44.7464 5.31539V8.56943H43.816L43.5583 7.90552H43.5234C43.3836 8.08023 43.2409 8.22291 43.0953 8.33356C42.9497 8.44422 42.7823 8.52575 42.593 8.57816C42.4038 8.63058 42.1737 8.65678 41.9029 8.65678C41.6146 8.65678 41.3555 8.60146 41.1254 8.49081C40.8983 8.38015 40.7192 8.21126 40.5882 7.98414C40.4572 7.7541 40.3916 7.46291 40.3916 7.11057C40.3916 6.59225 40.5736 6.2108 40.9376 5.9662C41.3016 5.71869 41.8476 5.58183 42.5756 5.55562L43.4229 5.52941V5.31539C43.4229 5.05914 43.3559 4.87132 43.222 4.75194C43.088 4.63255 42.9017 4.57286 42.6629 4.57286C42.427 4.57286 42.1955 4.60634 41.9684 4.67332C41.7413 4.74029 41.5142 4.82473 41.287 4.92665L40.8459 4.02688C41.105 3.89002 41.3948 3.78228 41.7151 3.70366C42.0383 3.62504 42.3717 3.58572 42.7153 3.58572ZM43.4229 6.30689L42.9075 6.32436C42.4765 6.33601 42.1766 6.41317 42.0077 6.55585C41.8418 6.69854 41.7588 6.88635 41.7588 7.11931C41.7588 7.32314 41.8185 7.46873 41.9378 7.55609C42.0572 7.64053 42.213 7.68276 42.4052 7.68276C42.6906 7.68276 42.9308 7.59831 43.1259 7.42942C43.3239 7.26053 43.4229 7.0203 43.4229 6.70873V6.30689ZM48.8478 3.59446C48.9147 3.59446 48.9919 3.59883 49.0793 3.60756C49.1695 3.61339 49.2423 3.62212 49.2977 3.63377L49.1972 4.88297C49.1535 4.86841 49.0909 4.85822 49.0094 4.8524C48.9308 4.84366 48.8623 4.83929 48.8041 4.83929C48.6323 4.83929 48.4649 4.86113 48.3018 4.90481C48.1416 4.94849 47.9975 5.01983 47.8694 5.11884C47.7412 5.21493 47.6393 5.34305 47.5636 5.50321C47.4908 5.66045 47.4544 5.85409 47.4544 6.08413V8.56943H46.1222V3.68618H47.1312L47.3278 4.50734H47.3933C47.4894 4.34136 47.6088 4.18994 47.7514 4.05308C47.897 3.91331 48.0616 3.80266 48.245 3.72113C48.4314 3.63668 48.6323 3.59446 48.8478 3.59446ZM51.5165 1.77307V3.35423C51.5165 3.53768 51.5107 3.71967 51.499 3.90021C51.4903 4.08075 51.4787 4.22052 51.4641 4.31952H51.5165C51.6446 4.1186 51.8194 3.94826 52.0407 3.80848C52.262 3.6658 52.5488 3.59446 52.9011 3.59446C53.4486 3.59446 53.8926 3.80848 54.2333 4.23653C54.574 4.66458 54.7443 5.29209 54.7443 6.11907C54.7443 6.67524 54.6657 7.1426 54.5085 7.52115C54.3512 7.89678 54.1314 8.18069 53.8489 8.37287C53.5665 8.56215 53.2389 8.65678 52.8662 8.65678C52.508 8.65678 52.2256 8.59272 52.0188 8.4646C51.8121 8.33648 51.6446 8.19234 51.5165 8.03218H51.4248L51.202 8.56943H50.1843V1.77307H51.5165ZM52.4731 4.66021C52.2401 4.66021 52.0552 4.70826 51.9184 4.80435C51.7815 4.90044 51.681 5.04458 51.617 5.23677C51.5558 5.42895 51.5223 5.6721 51.5165 5.9662V6.11033C51.5165 6.58497 51.5864 6.94896 51.7262 7.20229C51.8659 7.45272 52.1207 7.57793 52.4905 7.57793C52.7643 7.57793 52.9812 7.45126 53.1413 7.19793C53.3044 6.94459 53.3859 6.57915 53.3859 6.1016C53.3859 5.62405 53.3044 5.26443 53.1413 5.02274C52.9783 4.78106 52.7555 4.66021 52.4731 4.66021ZM60.2828 6.11907C60.2828 6.52674 60.2274 6.88781 60.1168 7.20229C60.009 7.51678 59.8504 7.78322 59.6407 8.00161C59.434 8.21709 59.1835 8.38015 58.8894 8.49081C58.5982 8.60146 58.2692 8.65678 57.9023 8.65678C57.5587 8.65678 57.2428 8.60146 56.9545 8.49081C56.6691 8.38015 56.4201 8.21709 56.2076 8.00161C55.9979 7.78322 55.8349 7.51678 55.7184 7.20229C55.6048 6.88781 55.548 6.52674 55.548 6.11907C55.548 5.57746 55.6441 5.11884 55.8363 4.7432C56.0285 4.36757 56.3022 4.0822 56.6575 3.88711C57.0127 3.69201 57.4364 3.59446 57.9285 3.59446C58.3857 3.59446 58.7904 3.69201 59.1428 3.88711C59.498 4.0822 59.7761 4.36757 59.977 4.7432C60.1809 5.11884 60.2828 5.57746 60.2828 6.11907ZM56.9064 6.11907C56.9064 6.43938 56.9414 6.70873 57.0113 6.92712C57.0811 7.14551 57.1903 7.31003 57.3388 7.42069C57.4874 7.53134 57.681 7.58666 57.9198 7.58666C58.1556 7.58666 58.3464 7.53134 58.492 7.42069C58.6405 7.31003 58.7482 7.14551 58.8152 6.92712C58.8851 6.70873 58.92 6.43938 58.92 6.11907C58.92 5.79585 58.8851 5.52796 58.8152 5.31539C58.7482 5.09991 58.6405 4.9383 58.492 4.83056C58.3434 4.72282 58.1498 4.66895 57.911 4.66895C57.5587 4.66895 57.3024 4.78979 57.1423 5.03148C56.9851 5.27317 56.9064 5.6357 56.9064 6.11907ZM64.157 3.59446C64.6783 3.59446 65.0976 3.73714 65.415 4.02251C65.7324 4.30496 65.8911 4.75922 65.8911 5.38527V8.56943H64.5589V5.71723C64.5589 5.3678 64.4948 5.10428 64.3667 4.92665C64.2415 4.74903 64.0435 4.66021 63.7727 4.66021C63.365 4.66021 63.0869 4.79853 62.9384 5.07516C62.7899 5.35179 62.7157 5.75072 62.7157 6.27194V8.56943H61.3835V3.68618H62.4012L62.5803 4.31079H62.6545C62.7593 4.1419 62.8889 4.00504 63.0432 3.90021C63.2005 3.79538 63.3737 3.71822 63.563 3.66871C63.7552 3.61921 63.9532 3.59446 64.157 3.59446Z" fill="black"/>
    <path d="M31.7038 3.00299C31.7038 3.13294 31.6768 3.24552 31.6228 3.34074C31.5687 3.43595 31.4954 3.51379 31.4027 3.57426C31.3114 3.63474 31.2085 3.67913 31.0939 3.70743V3.71901C31.3204 3.74732 31.4922 3.8168 31.6092 3.92745C31.7276 4.0381 31.7868 4.18607 31.7868 4.37134C31.7868 4.53603 31.7463 4.68336 31.6652 4.81331C31.5854 4.94326 31.4619 5.04555 31.2947 5.12017C31.1274 5.1948 30.9119 5.23211 30.6481 5.23211C30.4924 5.23211 30.347 5.21924 30.2119 5.19351C30.0781 5.16907 29.952 5.13111 29.8337 5.07964V4.57206C29.9546 4.63382 30.0813 4.68078 30.2139 4.71295C30.3464 4.74383 30.4699 4.75927 30.5844 4.75927C30.798 4.75927 30.9473 4.7226 31.0322 4.64926C31.1184 4.57463 31.1615 4.47041 31.1615 4.3366C31.1615 4.25812 31.1415 4.19186 31.1017 4.13782C31.0618 4.08378 30.9923 4.0426 30.8932 4.0143C30.7954 3.98599 30.6584 3.97184 30.4821 3.97184H30.2679V3.51443H30.486C30.6597 3.51443 30.7916 3.49835 30.8816 3.46618C30.973 3.43273 31.0348 3.3877 31.0669 3.33109C31.1004 3.27319 31.1171 3.20757 31.1171 3.13423C31.1171 3.03387 31.0862 2.95538 31.0245 2.89877C30.9627 2.84216 30.8598 2.81385 30.7157 2.81385C30.6256 2.81385 30.5433 2.82543 30.4686 2.84859C30.3953 2.87047 30.329 2.89749 30.2698 2.92965C30.2107 2.96053 30.1585 2.99077 30.1135 3.02036L29.8375 2.60928C29.9482 2.5295 30.0775 2.46324 30.2254 2.41049C30.3747 2.35774 30.5523 2.33136 30.7581 2.33136C31.0489 2.33136 31.2792 2.3899 31.4491 2.50699C31.6189 2.62407 31.7038 2.78941 31.7038 3.00299Z" fill="black"/>
</svg>
