<svg width="126" height="91" viewBox="0 0 126 91" fill="none" xmlns="http://www.w3.org/2000/svg">
    <path fill-rule="evenodd" clip-rule="evenodd" d="M1.12298 63.955H124.277C124.896 63.955 125.4 63.5678 125.4 63.0929V1.01726C125.4 0.542462 124.896 0.155029 124.277 0.155029H1.12298C0.504396 0.155029 0 0.542561 0 1.01726V63.0929C0 63.5678 0.504396 63.955 1.12298 63.955ZM123.154 62.2307H2.24596V1.8794H123.154V62.2307ZM13.5363 11.4794H11.4748V52.0861H13.5363V11.4794ZM24.6682 11.4794H20.5452V52.0861H24.6682V11.4794ZM36.5547 11.4794H30.9317V52.0861H36.5547V11.4794ZM45.5372 11.4794H43.4758V52.0861H45.5372V11.4794ZM56.6692 11.4794H52.5463V52.0861H56.6692V11.4794ZM78.5647 11.4794H74.4418V52.0861H78.5647V11.4794ZM88.3019 11.4794H84.179V52.0861H88.3019V11.4794ZM98.7846 11.4794H94.6617V52.0861H98.7846V11.4794ZM117.311 11.4794H113.188V52.0861H117.311V11.4794ZM68.5556 11.4794H62.9327V52.0861H68.5556V11.4794ZM109.162 11.4794H103.539V52.0861H109.162V11.4794Z" fill="#040000"/>
    <path d="M75.4167 40.0681C85.5663 45.4673 89.4085 58.0772 84.0048 68.2355C78.6097 78.3762 65.9954 82.2141 55.8547 76.8149C45.6965 71.4112 41.8542 58.8056 47.2578 48.6649C52.6705 38.5108 65.2674 34.6644 75.4167 40.0681Z" fill="white"/>
    <path d="M65.623 80.3857C62.0526 80.3857 58.4955 79.4906 55.3286 77.8066C50.1489 75.0522 46.3592 70.4511 44.6485 64.8454C42.938 59.2402 43.5126 53.3058 46.2671 48.1389C50.0962 40.9588 57.5218 36.498 65.6537 36.498C69.2195 36.498 72.7768 37.3884 75.9434 39.0771C86.6235 44.7571 90.6807 58.0732 84.9963 68.7622C81.1847 75.9294 73.7592 80.3857 65.623 80.3857ZM65.6537 38.7438C58.3552 38.7438 51.6839 42.7484 48.2496 49.1916C45.7759 53.8319 45.2582 59.161 46.7934 64.1876C48.3285 69.2185 51.7366 73.3504 56.3814 75.8241C59.2281 77.3371 62.4211 78.1398 65.623 78.1398C72.9257 78.1398 79.5926 74.1398 83.0138 67.7095C88.1193 58.1127 84.4745 46.1564 74.8907 41.0595C72.0444 39.5464 68.8512 38.7438 65.6537 38.7438Z" fill="black"/>
    <path d="M90.2768 72.8326L83.4785 69.2185L84.5311 67.2358L91.3295 70.8501L90.2768 72.8326Z" fill="black"/>
    <path d="M117.917 81.8329C119.838 82.8505 120.557 85.2365 119.539 87.1489C118.513 89.0657 116.145 89.7893 114.223 88.7717L92.4157 77.1574C90.5033 76.1399 89.7753 73.7624 90.7929 71.8414C91.819 69.9291 94.1965 69.2008 96.1089 70.2228L117.917 81.8329Z" fill="#29953A"/>
    <path d="M116.066 90.3551C115.25 90.3551 114.43 90.1491 113.697 89.763L91.8897 78.1486C89.4334 76.8417 88.4991 73.7757 89.8019 71.3152C91.0781 68.9333 94.267 67.9554 96.6397 69.2317L118.443 80.8418C119.632 81.4734 120.505 82.5302 120.899 83.8198C121.298 85.1137 121.167 86.4821 120.531 87.6753C119.645 89.3287 117.935 90.3551 116.066 90.3551ZM94.267 70.8806C93.2274 70.8806 92.2757 71.4555 91.7845 72.3719C91.0607 73.7361 91.5784 75.4421 92.9425 76.166L114.75 87.7804C116.097 88.4999 117.838 87.947 118.549 86.6181C118.904 85.9558 118.974 85.1971 118.755 84.4776C118.535 83.7628 118.053 83.1749 117.391 82.824L95.5829 71.214C95.1705 70.9949 94.7274 70.8806 94.267 70.8806Z" fill="#040000"/>
</svg>
