<svg width="50" height="50" viewBox="0 0 50 50" fill="none" xmlns="http://www.w3.org/2000/svg">
<path d="M42.6429 31.25H26.4643V35.9285H42.6429V31.25ZM42.6429 21.8571H26.4643V26.5714H42.6429V21.8571ZM42.6429 10.9286H7.35717V15.6071H42.6429V10.9286ZM7.35717 35.9285H20.5715V21.8571H7.35717V35.9285ZM43.8571 50C43.25 48.1786 41.6071 46.8929 39.7143 46.8929C37.7857 46.8929 36.1785 48.1786 35.5714 50H29.1429C28.5357 48.1786 26.9286 46.8929 25 46.8929C23.0714 46.8929 21.4643 48.1786 20.8571 50H14.4286C13.8215 48.1786 12.2143 46.8929 10.2857 46.8929C8.39288 46.8929 6.74999 48.1786 6.14287 50H0V3.10714C0 1.39288 1.32141 0 2.92856 0H47.0714C48.6786 0 50 1.39288 50 3.10714V49.9999L43.8571 50Z" fill="white" fill-opacity="0.15"/>
</svg>
