<svg width="81" height="45" viewBox="0 0 81 45" fill="none" xmlns="http://www.w3.org/2000/svg">
    <path fill-rule="evenodd" clip-rule="evenodd" d="M0 26.5224C0 38.4348 9.59051 44.063 18.4491 44.2396C25.0557 44.3714 29.1941 43.8544 33.4658 42.2289L33.4659 42.2206H33.4824V42.2196H33.5259V29.9937H38.6422V25.9848H23.393V29.9937H28.5093V40.7805C25.0191 41.6821 21.5785 42.5123 16.1272 40.8577C8.22765 38.4601 5.30628 25.8158 8.17717 22.0805C10.5243 19.0267 15.6981 19.38 21.4777 19.9353C34.4916 21.1855 40.1101 12.5478 40.9593 0.29989C40.9769 0.0467016 40.6114 -0.0988826 40.4292 0.0778553C39.8519 0.637999 38.9729 1.31412 37.8825 1.91522C36.6871 2.5742 34.5001 2.46544 32.6767 2.37476C32.0978 2.34598 31.5556 2.31902 31.0934 2.31902C27.5937 2.14235 19.1507 2.43511 13.3762 5.0195C6.15812 8.24999 0 14.61 0 26.5224Z" fill="#29953A"/>
    <path fill-rule="evenodd" clip-rule="evenodd" d="M29.1241 7.72002C29.1241 8.09859 29.8812 8.45193 31.2188 8.78002C32.7836 9.16384 35.2584 9.18307 36.6198 8.09859C37.7878 7.16815 38.521 5.54929 39.0996 4.14334C39.1833 3.93988 38.8856 3.74659 38.7268 3.89893C37.9378 4.65612 36.8665 5.54196 35.7617 6.13002C33.7986 7.17489 31.8254 7.16897 30.5708 7.16521C30.4984 7.16499 30.4283 7.16478 30.3607 7.16478C29.3714 7.16478 29.1241 7.34145 29.1241 7.72002ZM23.597 9.38577C22.097 9.68208 20.6041 10.2068 19.6827 10.8506C19.1158 11.2467 19.4923 11.846 20.183 11.8126C20.9836 11.7739 21.9459 11.7568 22.6884 11.8843C24.1941 12.1429 25.3641 12.5682 26.459 12.9662C27.8811 13.483 29.1765 13.9539 30.9161 13.9539C33.6503 13.9539 35.5787 12.3319 36.5442 11.1229C36.9274 10.6431 36.4987 10.1942 35.8978 10.321C35.1848 10.4715 34.3154 10.5862 33.5021 10.5862C32.8045 10.5862 31.6512 10.346 30.3329 10.0714C28.0881 9.60383 25.3648 9.03656 23.597 9.38577ZM16.4295 13.1967C14.6341 13.5127 13.1239 14.9416 12.2715 16.1368C11.8618 16.7113 12.3093 17.3863 13.0149 17.3863H15.7228C16.2415 17.3863 17.2081 17.4661 18.4013 17.5647C21.504 17.8209 26.1391 18.2037 28.4176 17.6386C29.8643 17.2799 30.9295 16.6275 31.5847 16.0315C32.0296 15.6268 31.6394 15.1911 31.0501 15.3115C30.2122 15.4825 29.1385 15.6196 28.14 15.6196C27.3018 15.6196 25.7892 15.1541 24.0714 14.6255C21.4441 13.8171 18.337 12.861 16.4295 13.1967Z" fill="#B2D43B"/>
    <path d="M50.8263 37.9043H41.7833C41.8646 38.7051 42.0604 39.3015 42.3707 39.6937C42.8066 40.2575 43.3754 40.5394 44.0773 40.5394C44.5206 40.5394 44.9417 40.4168 45.3407 40.1717C45.5845 40.0164 45.8467 39.7427 46.1275 39.3505L50.5714 39.804C49.8917 41.1113 49.0716 42.0509 48.1112 42.6229C47.1507 43.1866 45.7729 43.4685 43.9776 43.4685C42.4187 43.4685 41.1923 43.2275 40.2983 42.7454C39.4043 42.2552 38.6618 41.4831 38.0708 40.4291C37.4871 39.3669 37.1953 38.1209 37.1953 36.691C37.1953 34.6565 37.7827 33.0101 38.9574 31.7519C40.1395 30.4936 41.7685 29.8644 43.8446 29.8644C45.5291 29.8644 46.8589 30.1463 47.8341 30.7101C48.8094 31.2739 49.5519 32.0909 50.0616 33.1613C50.5714 34.2316 50.8263 35.6247 50.8263 37.3406V37.9043ZM46.2383 35.5144C46.1497 34.5503 45.9132 33.8599 45.5291 33.4432C45.1523 33.0265 44.6536 32.8181 44.033 32.8181C43.3163 32.8181 42.7438 33.1327 42.3152 33.7618C42.0419 34.154 41.8683 34.7382 41.7944 35.5144H46.2383Z" fill="#29953A"/>
    <path d="M61.4487 38.0882L65.7375 38.6274C65.5011 39.6161 65.1132 40.474 64.5739 41.2012C64.0346 41.9202 63.3438 42.4799 62.5015 42.8802C61.6667 43.2806 60.6028 43.4808 59.3099 43.4808C58.0613 43.4808 57.0196 43.3541 56.1847 43.1009C55.3573 42.8394 54.6443 42.4227 54.0459 41.8507C53.4474 41.2706 52.9783 40.5925 52.6385 39.8163C52.2986 39.0401 52.1287 38.0106 52.1287 36.7278C52.1287 35.3878 52.3355 34.2725 52.7493 33.3819C53.0522 32.7282 53.4659 32.144 53.9905 31.6293C54.515 31.1064 55.0544 30.7183 55.6085 30.465C56.4876 30.0646 57.6143 29.8644 58.9885 29.8644C60.9094 29.8644 62.3722 30.2444 63.377 31.0042C64.3892 31.7641 65.0984 32.8753 65.5048 34.3379L61.2603 34.9629C61.1273 34.4073 60.8835 33.9906 60.5289 33.7128C60.1817 33.4268 59.7125 33.2838 59.1215 33.2838C58.3753 33.2838 57.7695 33.5821 57.304 34.1785C56.846 34.7668 56.6169 35.6615 56.6169 36.8626C56.6169 37.9329 56.846 38.7459 57.304 39.3015C57.7621 39.8571 58.3457 40.1349 59.055 40.1349C59.646 40.1349 60.141 39.9674 60.54 39.6324C60.9463 39.2974 61.2493 38.7827 61.4487 38.0882Z" fill="#29953A"/>
    <path d="M67.5829 25.2072H72.0933V31.8254C72.7065 31.1227 73.316 30.6202 73.9219 30.3179C74.5277 30.0156 75.2443 29.8644 76.0718 29.8644C77.2982 29.8644 78.2624 30.2771 78.9642 31.1023C79.6735 31.9275 80.0281 33.194 80.0281 34.9016V43.1744H75.4955V36.0169C75.4955 35.1999 75.3588 34.6238 75.0855 34.2888C74.8121 33.9457 74.428 33.7741 73.9329 33.7741C73.3862 33.7741 72.9429 34.0029 72.6031 34.4604C72.2632 34.918 72.0933 35.7391 72.0933 36.9239V43.1744H67.5829V25.2072Z" fill="#29953A"/>
</svg>
