<svg width="225" height="127" viewBox="0 0 225 127" fill="none" xmlns="http://www.w3.org/2000/svg">
<path d="M40.1168 101C40.1168 101 31.9629 102.983 28.6573 95.38C25.3517 87.777 28.2165 77.6397 28.2165 77.6397C28.2165 77.6397 35.0482 80.6148 39.5659 86.7853C43.9734 92.8456 42.1002 98.5754 40.1168 101Z" fill="#CECECE"/>
<path d="M43.8629 103.975V104.085C43.7527 104.195 43.6425 104.305 43.4221 104.195C43.3119 104.195 34.9376 98.7957 31.7422 86.8954C31.7422 86.7853 31.7422 86.5649 31.9626 86.5649C32.0728 86.5649 32.2931 86.5649 32.2931 86.7853C35.3784 98.4652 43.6425 103.644 43.6425 103.754C43.7527 103.754 43.8629 103.864 43.8629 103.975Z" fill="#CECECE"/>
<path d="M31.9626 86.5649C31.8524 86.5649 31.7422 86.7853 31.7422 86.8955C33.5052 93.7271 37.0312 98.355 39.7859 101.11C40.0063 101.11 40.1165 101 40.1165 101C40.1165 100.889 40.2267 100.889 40.2267 100.779C37.5821 98.1347 34.0561 93.5068 32.1829 86.6751C32.1829 86.5649 32.0728 86.4547 31.9626 86.5649Z" fill="white"/>
<path d="M120.336 25.9616C120.336 25.9616 114.607 19.9012 119.565 13.1798C124.524 6.56849 134.771 3.92398 134.771 3.92398C134.771 3.92398 135.542 11.3066 132.457 18.2484C129.372 25.3004 123.422 26.5125 120.336 25.9616Z" fill="#CECECE"/>
<path d="M119.675 30.6996H119.565C119.455 30.6996 119.234 30.5894 119.344 30.3691C119.344 30.2589 119.895 20.342 128.6 11.6371C128.71 11.5269 128.931 11.5269 129.041 11.6371C129.151 11.7473 129.151 11.9677 129.041 12.0779C120.446 20.5623 119.895 30.2589 119.895 30.3691C119.785 30.4793 119.785 30.5894 119.675 30.6996Z" fill="#CECECE"/>
<path d="M128.932 11.7473C128.822 11.6372 128.602 11.6372 128.491 11.7473C123.423 16.7058 121.109 21.9948 120.117 25.7412C120.227 25.9616 120.338 25.9616 120.338 25.9616C120.448 25.9616 120.558 25.9616 120.558 25.9616C121.55 22.3254 123.864 16.9262 128.822 12.0779C129.042 11.9677 129.042 11.8575 128.932 11.7473Z" fill="white"/>
<path d="M28.7675 112.679C28.7675 112.679 28.8777 108.382 24.6905 107.501C20.5034 106.619 15.5449 109.264 15.5449 109.264C15.5449 109.264 17.8589 112.349 21.3849 113.892C24.9109 115.434 27.7758 114.002 28.7675 112.679Z" fill="#CECECE"/>
<path d="M30.6404 114.222C30.7506 114.112 30.7506 114.002 30.7506 114.002C30.7506 114.002 27.1144 110.365 20.7235 110.035C20.6133 110.035 20.6133 110.145 20.6133 110.145C20.6133 110.255 20.7235 110.255 20.7235 110.255C27.0042 110.476 30.5302 114.112 30.5302 114.112C30.5302 114.222 30.6404 114.222 30.6404 114.222Z" fill="#CECECE"/>
<path d="M20.5039 110.145C20.5039 110.035 20.6141 110.035 20.6141 110.035C24.2503 110.145 27.005 111.467 28.6578 112.459C28.6578 112.569 28.6578 112.679 28.6578 112.679L28.5476 112.79C26.8948 111.798 24.1401 110.476 20.5039 110.365C20.6141 110.365 20.5039 110.255 20.5039 110.145Z" fill="white"/>
<path d="M142.15 21.0031C142.15 21.0031 142.591 16.7058 146.888 16.3752C151.186 16.0447 155.593 19.2401 155.593 19.2401C155.593 19.2401 152.949 21.9948 149.202 23.2069C145.456 24.419 143.032 22.3254 142.15 21.0031Z" fill="#CECECE"/>
<path d="M140.167 22.3253C140.056 22.2152 140.056 22.2152 140.167 22.3253C140.056 22.2152 140.056 22.105 140.167 22.105C140.167 22.105 144.244 18.9095 150.634 19.4605C150.745 19.4605 150.745 19.5706 150.745 19.5706C150.745 19.6808 150.634 19.6808 150.634 19.6808C144.464 19.1299 140.387 22.2152 140.387 22.3253C140.167 22.3253 140.167 22.3253 140.167 22.3253Z" fill="#CECECE"/>
<path d="M150.635 19.5706C150.635 19.4605 150.635 19.4605 150.525 19.4605C146.888 19.1299 144.024 20.0114 142.15 20.8929C142.15 21.0031 142.15 21.1133 142.15 21.1133C142.15 21.1133 142.15 21.2235 142.261 21.2235C144.024 20.342 146.888 19.4605 150.525 19.791C150.635 19.6808 150.635 19.5706 150.635 19.5706Z" fill="white"/>
<path d="M182.81 115.655C182.81 115.655 179.945 110.806 184.132 107.17C188.319 103.534 195.482 103.314 195.482 103.314C195.482 103.314 194.931 108.272 191.845 112.349C188.76 116.536 184.683 116.426 182.81 115.655Z" fill="#CECECE"/>
<path d="M181.597 118.63C181.377 118.63 181.377 118.52 181.377 118.409C181.377 118.299 183.14 111.908 190.192 107.501C190.302 107.391 190.412 107.501 190.412 107.611C190.523 107.721 190.412 107.831 190.302 107.831C183.36 112.129 181.597 118.409 181.597 118.52C181.708 118.52 181.708 118.63 181.597 118.63Z" fill="#CECECE"/>
<path d="M190.523 107.501C190.412 107.391 190.302 107.391 190.302 107.391C186.225 109.925 184.021 113.12 182.699 115.324C182.809 115.434 182.809 115.544 182.809 115.544C182.809 115.544 182.92 115.544 183.03 115.655C184.242 113.451 186.556 110.255 190.523 107.721C190.523 107.721 190.523 107.611 190.523 107.501Z" fill="white"/>
<path d="M82.8704 126.122L72.072 29.9283L58.7392 31.9117L55.4336 126.122H82.8704Z" fill="#CECECE"/>
<path d="M78.4632 126.122H168.266L171.572 46.6768L143.143 63.756L138.736 41.0573L100.942 64.5273L97.1951 46.6768L72.0723 64.1967L78.4632 126.122Z" fill="#E6E6E6"/>
<path d="M143.583 64.5274L142.701 63.0949L172.562 43.3713L173.554 46.7871L143.583 64.5274Z" fill="#6C6C6C"/>
<path d="M101.381 65.1885L100.5 63.756L139.396 37.6415L140.388 40.9471L101.381 65.1885Z" fill="#6C6C6C"/>
<path d="M71.3003 65.1885L70.3086 63.756L97.9658 43.4814L98.9575 46.6769L71.3003 65.1885Z" fill="#6C6C6C"/>
<path d="M56.6445 25.4106V33.8951H74.0542L73.0625 23.868L56.6445 25.4106Z" fill="#6C6C6C"/>
<path d="M94.2193 87.9973H85.845L84.082 78.3008L94.2193 76.5378V87.9973Z" fill="white"/>
<path d="M135.321 87.8871H126.947L125.184 78.1906L135.321 76.5378V87.8871Z" fill="white"/>
<path d="M114.495 87.9973H104.357V76.4276L114.495 78.3008V87.9973Z" fill="white"/>
<path d="M159.34 89.3196H149.203V77.86L159.34 79.7332V89.3196Z" fill="white"/>
<path d="M142.482 96.1512L104.357 97.1429L106.231 126.122H140.058L142.482 96.1512Z" fill="#D0D0D0"/>
<path d="M142.482 96.1512L104.357 97.1429L106.231 126.122H140.058L142.482 96.1512Z" stroke="#6C6C6C" stroke-width="0.5" stroke-miterlimit="10" stroke-linecap="round"/>
<path d="M1 126.122H223.8" stroke="#6C6C6C" stroke-miterlimit="10" stroke-linecap="round"/>
<path d="M201.211 126.122C201.211 126.122 200.77 123.919 201.762 122.707" stroke="#6C6C6C" stroke-width="0.5" stroke-miterlimit="10" stroke-linecap="round"/>
<path d="M195.482 126.122C195.482 126.122 195.372 125.02 195.041 124.139" stroke="#6C6C6C" stroke-width="0.5" stroke-miterlimit="10" stroke-linecap="round"/>
<path d="M170.47 126.122C170.47 126.122 170.249 122.596 172.012 121.384" stroke="#6C6C6C" stroke-width="0.5" stroke-miterlimit="10" stroke-linecap="round"/>
<path d="M172.232 126.122C172.232 126.122 172.232 123.698 173.224 123.808" stroke="#6C6C6C" stroke-width="0.5" stroke-miterlimit="10" stroke-linecap="round"/>
<path d="M46.9476 126.122C46.9476 126.122 46.8374 123.368 45.8457 121.825" stroke="#6C6C6C" stroke-width="0.5" stroke-miterlimit="10" stroke-linecap="round"/>
<path d="M50.9142 125.902C50.9142 125.902 50.5837 123.919 51.4652 123.037" stroke="#6C6C6C" stroke-width="0.5" stroke-miterlimit="10" stroke-linecap="round"/>
<path d="M15.5465 126.122C15.5465 126.122 15.8771 124.249 14.0039 122.927" stroke="#6C6C6C" stroke-width="0.5" stroke-miterlimit="10" stroke-linecap="round"/>
<path d="M12.4593 100.228C13.7981 100.228 14.8834 99.1429 14.8834 97.8041C14.8834 96.4653 13.7981 95.38 12.4593 95.38C11.1205 95.38 10.0352 96.4653 10.0352 97.8041C10.0352 99.1429 11.1205 100.228 12.4593 100.228Z" fill="#E6E6E6"/>
<path d="M41.2183 114.773C41.766 114.773 42.2099 114.329 42.2099 113.781C42.2099 113.234 41.766 112.79 41.2183 112.79C40.6706 112.79 40.2266 113.234 40.2266 113.781C40.2266 114.329 40.6706 114.773 41.2183 114.773Z" fill="#E6E6E6"/>
<path d="M186.778 89.4298C189.03 89.4298 190.855 87.6045 190.855 85.3529C190.855 83.1013 189.03 81.2759 186.778 81.2759C184.526 81.2759 182.701 83.1013 182.701 85.3529C182.701 87.6045 184.526 89.4298 186.778 89.4298Z" fill="#E6E6E6"/>
<path d="M211.128 96.1513C211.797 96.1513 212.34 95.6086 212.34 94.9392C212.34 94.2698 211.797 93.7272 211.128 93.7272C210.459 93.7272 209.916 94.2698 209.916 94.9392C209.916 95.6086 210.459 96.1513 211.128 96.1513Z" fill="#E6E6E6"/>
<path d="M152.509 44.5833C153.483 44.5833 154.272 43.794 154.272 42.8203C154.272 41.8466 153.483 41.0573 152.509 41.0573C151.535 41.0573 150.746 41.8466 150.746 42.8203C150.746 43.794 151.535 44.5833 152.509 44.5833Z" fill="#E6E6E6"/>
<path d="M83.7526 47.9992C84.2394 47.9992 84.6341 47.6045 84.6341 47.1177C84.6341 46.6309 84.2394 46.2362 83.7526 46.2362C83.2658 46.2362 82.8711 46.6309 82.8711 47.1177C82.8711 47.6045 83.2658 47.9992 83.7526 47.9992Z" fill="#E6E6E6"/>
<path d="M42.9808 69.596C45.0498 69.596 46.7272 67.9187 46.7272 65.8496C46.7272 63.7805 45.0498 62.1032 42.9808 62.1032C40.9117 62.1032 39.2344 63.7805 39.2344 65.8496C39.2344 67.9187 40.9117 69.596 42.9808 69.596Z" fill="#CECECE"/>
<path d="M44.7448 79.4028C45.2316 79.4028 45.6263 79.0081 45.6263 78.5213C45.6263 78.0344 45.2316 77.6398 44.7448 77.6398C44.2579 77.6398 43.8633 78.0344 43.8633 78.5213C43.8633 79.0081 44.2579 79.4028 44.7448 79.4028Z" fill="#CECECE"/>
<path d="M27.8854 53.178C28.3722 53.178 28.7669 52.7833 28.7669 52.2965C28.7669 51.8096 28.3722 51.415 27.8854 51.415C27.3986 51.415 27.0039 51.8096 27.0039 52.2965C27.0039 52.7833 27.3986 53.178 27.8854 53.178Z" fill="#CECECE"/>
<path d="M212.34 116.977C212.827 116.977 213.222 116.582 213.222 116.095C213.222 115.608 212.827 115.214 212.34 115.214C211.854 115.214 211.459 115.608 211.459 116.095C211.459 116.582 211.854 116.977 212.34 116.977Z" fill="#CECECE"/>
<path d="M84.8545 24.0884C85.9499 24.0884 86.8379 23.2004 86.8379 22.105C86.8379 21.0096 85.9499 20.1216 84.8545 20.1216C83.7591 20.1216 82.8711 21.0096 82.8711 22.105C82.8711 23.2004 83.7591 24.0884 84.8545 24.0884Z" fill="#CECECE"/>
<path d="M147.109 9.43336C148.082 9.43336 148.872 8.64404 148.872 7.67036C148.872 6.69667 148.082 5.90735 147.109 5.90735C146.135 5.90735 145.346 6.69667 145.346 7.67036C145.346 8.64404 146.135 9.43336 147.109 9.43336Z" fill="#CECECE"/>
<path d="M132.124 31.5812C132.611 31.5812 133.005 31.1865 133.005 30.6997C133.005 30.2128 132.611 29.8182 132.124 29.8182C131.637 29.8182 131.242 30.2128 131.242 30.6997C131.242 31.1865 131.637 31.5812 132.124 31.5812Z" fill="#CECECE"/>
<path d="M195.812 75.2156C196.543 75.2156 197.135 74.6236 197.135 73.8933C197.135 73.163 196.543 72.571 195.812 72.571C195.082 72.571 194.49 73.163 194.49 73.8933C194.49 74.6236 195.082 75.2156 195.812 75.2156Z" fill="#CECECE"/>
<path d="M177.411 74.4443C177.898 74.4443 178.292 74.0496 178.292 73.5628C178.292 73.0759 177.898 72.6813 177.411 72.6813C176.924 72.6813 176.529 73.0759 176.529 73.5628C176.529 74.0496 176.924 74.4443 177.411 74.4443Z" fill="#CECECE"/>
<path d="M120.664 122.376H124.741" stroke="#6C6C6C" stroke-width="0.5" stroke-miterlimit="10" stroke-linecap="round"/>
<circle cx="64.3583" cy="10.0945" r="9.91691" fill="#CECECE"/>
<path d="M64.3573 16.5221C60.8073 16.5221 57.9297 13.6444 57.9297 10.0945C57.9297 6.54449 60.8073 3.66684 64.3573 3.66684C67.9073 3.66684 70.7849 6.54449 70.7849 10.0945C70.7849 13.6444 67.9073 16.5221 64.3573 16.5221ZM64.3573 15.2366C65.7211 15.2366 67.029 14.6948 67.9933 13.7305C68.9577 12.7662 69.4994 11.4582 69.4994 10.0945C69.4994 8.7307 68.9577 7.42278 67.9933 6.45845C67.029 5.49412 65.7211 4.95237 64.3573 4.95237C62.9935 4.95237 61.6856 5.49412 60.7213 6.45845C59.757 7.42278 59.2152 8.7307 59.2152 10.0945C59.2152 11.4582 59.757 12.7662 60.7213 13.7305C61.6856 14.6948 62.9935 15.2366 64.3573 15.2366ZM63.7146 6.88065H65.0001V8.16618H63.7146V6.88065ZM63.7146 9.45171H65.0001V13.3083H63.7146V9.45171Z" fill="white"/>
</svg>
