<svg width="184" height="99" viewBox="0 0 184 99" fill="none" xmlns="http://www.w3.org/2000/svg">
    <path d="M68.0002 23.655L68.0001 23.6515C67.9559 11.237 78.0509 1.15503 90.5001 1.15503C102.946 1.15503 113 11.2346 113 23.655C113 36.0742 102.901 46.155 90.5001 46.155C78.0541 46.155 68.0002 36.0755 68.0002 23.655Z" stroke="black" stroke-width="2"/>
    <path d="M81.6197 56.155H101.38C117.759 56.155 131 69.2345 131 85.3637V87.3277C131 88.5434 130.405 89.507 129.072 90.3235C127.692 91.1691 125.606 91.7915 122.877 92.2264C117.431 93.094 109.864 93.155 101.38 93.155H81.6197C73.129 93.155 65.5646 93.1523 60.1179 92.3133C57.3888 91.8929 55.3079 91.2775 53.9321 90.4248C52.6098 89.6051 52 88.6157 52 87.3277V85.3637C52 69.2345 65.2414 56.155 81.6197 56.155Z" fill="#29953A" stroke="black" stroke-width="2"/>
    <path fill-rule="evenodd" clip-rule="evenodd" d="M11.8511 84.1218C14.1153 85.4941 15.6461 87.9584 15.6461 90.7934C15.6461 95.1069 12.1375 98.6164 7.82302 98.6164C3.50852 98.6164 -1.88551e-07 95.1069 0 90.7934C1.88551e-07 86.4798 3.50852 82.9703 7.82302 82.9703C8.60417 82.9703 9.34335 83.12 10.0557 83.3339L17.427 69.717C16.4129 68.3975 15.7854 66.7669 15.7854 64.978C15.7854 60.6645 19.294 57.155 23.6085 57.155C27.9229 57.155 31.4315 60.6645 31.4315 64.978C31.4315 67.1026 30.5739 69.027 29.195 70.4382L36.6933 83.2141C37.2882 83.069 37.9013 82.9704 38.5402 82.9704C40.1886 82.9704 41.7193 83.4827 42.9817 84.3563L51.5103 68.5783C51.7729 68.0925 52.3797 67.9115 52.8655 68.1741C53.3514 68.4367 53.5323 69.0435 53.2697 69.5294L44.5074 85.7396C45.6645 87.1038 46.3631 88.8685 46.3631 90.7934C46.3631 95.1069 42.8546 98.6164 38.5401 98.6164C34.2256 98.6164 30.7171 95.1069 30.7171 90.7934C30.7171 87.8213 32.4017 85.2622 34.8492 83.9384L27.6365 71.6496C26.4561 72.3653 25.0877 72.8011 23.6085 72.8011C21.8189 72.8011 20.1878 72.1734 18.869 71.1593L11.8511 84.1218ZM38.5402 94.7049C40.6965 94.7049 42.4517 92.9506 42.4517 90.7934C42.4517 88.6361 40.6965 86.8819 38.5402 86.8819C36.3839 86.8819 34.6287 88.6361 34.6287 90.7934C34.6287 92.9506 36.3839 94.7049 38.5402 94.7049ZM23.6085 61.0665C21.4522 61.0665 19.697 62.8208 19.697 64.978C19.697 67.1353 21.4522 68.8896 23.6085 68.8896C25.7648 68.8896 27.52 67.1353 27.52 64.978C27.52 62.8208 25.7648 61.0665 23.6085 61.0665ZM7.82308 86.8819C5.66676 86.8819 3.91157 88.6361 3.91157 90.7934C3.91157 92.9506 5.66682 94.7049 7.82308 94.7049C9.9794 94.7049 11.7346 92.9506 11.7346 90.7934C11.7346 88.6361 9.9794 86.8819 7.82308 86.8819Z" fill="black"/>
    <path fill-rule="evenodd" clip-rule="evenodd" d="M171.54 84.1218C169.275 85.4941 167.745 87.9584 167.745 90.7934C167.745 95.1069 171.253 98.6164 175.568 98.6164C179.882 98.6164 183.391 95.1069 183.391 90.7934C183.391 86.4798 179.882 82.9703 175.568 82.9703C174.786 82.9703 174.047 83.12 173.335 83.3339L165.964 69.717C166.978 68.3975 167.605 66.7669 167.605 64.978C167.605 60.6645 164.097 57.155 159.782 57.155C155.468 57.155 151.959 60.6645 151.959 64.978C151.959 67.1026 152.817 69.027 154.196 70.4382L146.697 83.2141C146.102 83.069 145.489 82.9704 144.85 82.9704C143.202 82.9704 141.671 83.4827 140.409 84.3563L131.88 68.5783C131.618 68.0925 131.011 67.9115 130.525 68.1741C130.039 68.4367 129.858 69.0435 130.121 69.5294L138.883 85.7396C137.726 87.1038 137.027 88.8685 137.027 90.7934C137.027 95.1069 140.536 98.6164 144.85 98.6164C149.165 98.6164 152.674 95.1069 152.674 90.7934C152.674 87.8213 150.989 85.2622 148.541 83.9384L155.754 71.6496C156.935 72.3653 158.303 72.8011 159.782 72.8011C161.572 72.8011 163.203 72.1734 164.522 71.1593L171.54 84.1218ZM144.85 94.7049C142.694 94.7049 140.939 92.9506 140.939 90.7934C140.939 88.6361 142.694 86.8819 144.85 86.8819C147.007 86.8819 148.762 88.6361 148.762 90.7934C148.762 92.9506 147.007 94.7049 144.85 94.7049ZM159.782 61.0665C161.938 61.0665 163.694 62.8208 163.694 64.978C163.694 67.1353 161.938 68.8896 159.782 68.8896C157.626 68.8896 155.871 67.1353 155.871 64.978C155.871 62.8208 157.626 61.0665 159.782 61.0665ZM175.568 86.8819C177.724 86.8819 179.479 88.6361 179.479 90.7934C179.479 92.9506 177.724 94.7049 175.568 94.7049C173.411 94.7049 171.656 92.9506 171.656 90.7934C171.656 88.6361 173.411 86.8819 175.568 86.8819Z" fill="black"/>
</svg>
