<svg width="60" height="50" viewBox="0 0 60 50" fill="none" xmlns="http://www.w3.org/2000/svg">
<path fill-rule="evenodd" clip-rule="evenodd" d="M7.79359 13.8365C6.19071 9.05317 5.20072 4.15143 4.54669 0.313477C4.36073 0.416295 4.20644 0.584601 4.12066 0.81752C-1.78579 16.8555 -2.58693 48.567 28.4584 49.3485C28.5126 49.3499 28.5666 49.3468 28.6198 49.3396C28.5492 49.0401 28.4789 48.7359 28.4075 48.4273C27.8614 46.067 27.2546 43.4441 26.0028 40.5803C24.3661 36.8362 21.6257 32.6942 16.4742 28.3561C12.3993 24.9246 9.66674 19.4263 7.79359 13.8365ZM8.74177 13.5187C7.18957 8.88668 6.21717 4.13006 5.56708 0.34756C5.69984 0.429784 5.81805 0.544904 5.90902 0.69322C9.18095 6.02742 13.9212 10.9169 21.3289 15.3615C38.7339 25.1253 34.2632 41.1539 29.4838 48.6389L29.3955 48.2575L29.3955 48.2575C28.8468 45.8839 28.2119 43.1373 26.919 40.1797C25.2199 36.2927 22.3855 32.0267 17.1184 27.5912C13.2557 24.3384 10.5962 19.0526 8.74177 13.5187ZM56.3458 11.5325C31.9334 23.3955 32.8625 38.2361 38.3964 46.9904C45.5983 38.4268 50.0879 30.8005 52.7766 24.6478C55.3571 18.7428 56.269 14.2183 56.3458 11.5325ZM39.1833 47.6083C39.2907 47.6248 39.4017 47.6239 39.5112 47.6041C62.2567 43.4898 61.9125 22.1316 57.9092 11.9139C57.806 11.6503 57.5965 11.4643 57.3494 11.3764C57.3043 14.2289 56.3546 18.9573 53.6929 25.0483C50.9652 31.2902 46.4289 38.9883 39.1833 47.6083Z" fill="white" fill-opacity="0.15"/>
</svg>
