<svg width="50" height="50" viewBox="0 0 50 50" fill="none" xmlns="http://www.w3.org/2000/svg">
<path d="M49.5813 40.3689C51.0344 42.724 48.4283 45.5192 46.0026 44.1965C45.3229 43.8219 44.7136 43.3303 44.1979 42.745C39.5434 37.4449 34.6873 32.3203 29.9063 27.1184C29.704 26.8963 29.4953 26.6801 29.2805 26.47C28.6524 27.0201 28.0524 27.5703 27.4243 28.1181C26.6509 27.2683 25.9009 26.4419 25.0713 25.5429C24.6213 25.9175 24.1713 26.292 23.6979 26.6947C20.3418 23.1925 17.0091 19.6645 13.5826 16.0897C16.988 12.9878 20.3418 9.91397 23.7682 6.78865C27.1759 10.3377 30.5555 13.8399 33.9585 17.4147L32.5101 18.7655C33.2835 19.6153 34.0335 20.4675 34.8373 21.3407C34.3381 21.8159 33.8366 22.2654 33.3093 22.7687L34.01 23.5413C38.8685 28.7431 43.6237 34.0199 48.6017 39.0953C48.9814 39.4933 49.3306 39.9194 49.5813 40.3689ZM31.432 50H0.0385772C0.0385772 48.8224 -0.0622003 47.7198 0.062014 46.6218C0.237789 45.0744 1.36744 44.0467 2.94472 43.8219C3.1205 43.7985 3.27049 43.747 3.46971 43.7213L3.5447 43.3233C3.64548 41.722 4.49389 40.8722 6.0993 40.8722C9.52574 40.8488 12.9569 40.8722 16.388 40.8722H25.3502C27.1243 40.8722 27.8274 41.5207 28.1274 43.2975C28.1532 43.5223 28.4555 43.7962 28.6782 43.8477C30.4828 44.2691 31.4554 45.449 31.4554 47.275C31.432 48.1482 31.432 49.0472 31.432 50ZM23.3463 29.4455C23.3463 29.6187 23.3463 29.7685 23.3229 29.9441C23.0721 31.419 20.241 33.6453 18.7903 33.4206C18.1668 33.3176 17.4637 33.0179 17.0372 32.5684C13.7092 29.1669 10.4538 25.6927 7.1727 22.2397C5.94696 20.9427 5.99852 19.4655 7.32504 18.2926C8.15001 17.5435 8.85076 16.5907 10.0788 16.3402C11.028 16.1669 11.8577 16.3402 12.5327 17.0402C15.9027 20.5598 19.2565 24.0948 22.594 27.6452C23.0182 28.0923 23.194 28.7923 23.4963 29.3705C23.4495 29.3705 23.3979 29.4174 23.3463 29.4455ZM24.1713 3.98639V3.91148C24.4221 2.01054 25.9759 1.16073 27.3493 0.313264C28.4274 -0.365645 29.7024 0.111932 30.7805 1.23564C33.86 4.46397 36.9373 7.68761 40.0192 10.9417C41.6715 12.6647 41.6223 13.9663 39.8434 15.5676C39.445 15.9165 39.07 16.291 38.6411 16.6164C37.4646 17.5669 35.9131 17.4896 34.8584 16.3917C31.582 12.9644 28.3032 9.5394 25.0713 6.06292C24.5721 5.53852 24.3213 4.76363 23.9463 4.11047C24.0241 4.07445 24.0993 4.03299 24.1713 3.98639Z" fill="white" fill-opacity="0.15"/>
</svg>
