<svg width="488" height="406" viewBox="0 0 488 406" fill="none" xmlns="http://www.w3.org/2000/svg">
    <path d="M411.56 274.202H90.1946C86.6239 274.202 83.3176 272.346 80.8049 269.031C78.4244 265.849 77.1019 261.606 77.1019 257.098C77.1019 250.203 80.2759 243.971 85.1691 241.319C85.4336 241.187 85.5659 241.187 85.8304 241.187H140.053C144.285 241.187 148.252 238.933 151.426 234.822C154.6 230.579 156.319 225.01 156.319 219.044C156.319 212.944 154.468 206.978 151.029 202.735C147.326 197.961 143.359 197.033 137.408 197.033L85.0369 196.636C79.6147 196.636 74.4569 193.851 70.6217 188.68C66.9187 183.641 64.8027 177.012 64.8027 169.984C64.8027 155.266 73.9279 143.201 85.0369 143.201H410.502C415.925 143.201 421.082 145.985 424.918 151.156C428.621 156.195 430.737 162.824 430.737 169.852C430.737 184.57 421.611 196.636 410.502 196.636C399.658 196.636 388.549 196.636 377.837 196.768H370.431C368.315 196.768 366.199 196.636 363.818 196.503C355.09 195.973 345.171 195.31 339.352 203.265C336.178 207.508 334.459 213.077 334.459 219.044C334.459 231.242 341.733 241.319 350.726 241.319H415.925C416.189 241.319 416.321 241.319 416.586 241.452C418.305 242.38 419.76 243.706 420.95 245.297C423.331 248.479 424.653 252.722 424.653 257.231C424.653 266.512 418.834 274.202 411.56 274.202ZM86.2271 243.839C82.3919 246.093 79.8792 251.396 79.8792 257.098C79.8792 260.943 81.0694 264.656 83.0531 267.44C85.0369 270.092 87.5496 271.551 90.1946 271.551H411.56C417.247 271.551 421.876 265.054 421.876 257.231C421.876 253.385 420.686 249.673 418.702 246.888C417.776 245.562 416.718 244.634 415.528 243.971H350.594C340.146 243.971 331.682 232.833 331.682 219.044C331.682 212.414 333.666 206.315 337.104 201.541C343.849 192.393 354.561 193.056 363.951 193.718C366.199 193.851 368.315 193.984 370.299 193.984H377.705C388.417 193.984 399.526 193.851 410.37 193.851C420.024 193.851 427.959 183.111 427.959 169.852C427.959 163.355 426.108 157.388 422.669 152.747C419.363 148.239 414.999 145.852 410.37 145.852H85.0369C75.3827 145.587 67.4477 156.46 67.4477 169.587C67.4477 176.084 69.2992 182.05 72.7377 186.691C76.0439 191.199 80.4082 193.586 85.0369 193.586L137.408 193.984C142.698 193.984 148.252 194.647 153.145 200.746C156.848 205.387 158.964 212.016 158.964 218.779C158.964 225.408 156.981 231.507 153.542 236.281C149.971 241.054 145.21 243.706 140.053 243.706H86.2271V243.839Z" fill="#E9E9E9"/>
    <path d="M452.822 137.234H366.993C363.951 137.234 361.57 134.715 361.57 131.798V81.9425C361.57 78.8929 364.083 76.5062 366.993 76.5062H452.822C455.864 76.5062 458.245 79.0255 458.245 81.9425V131.665C458.377 134.715 455.864 137.234 452.822 137.234Z" fill="#E8E8CD"/>
    <path d="M85.8292 312.522L89.1354 318.621L95.2189 321.936L89.1354 325.251L85.8292 331.35L82.5229 325.251L76.4395 321.936L82.5229 318.621L85.8292 312.522Z" fill="#FFF9F3"/>
    <path d="M471.865 369.139L475.171 375.106L481.255 378.553L475.171 381.868L471.865 387.835L468.559 381.868L462.607 378.553L468.559 375.106L471.865 369.139Z" fill="#FFF9F3"/>
    <path d="M45.6255 333.074L46.6834 334.93L48.4027 335.858L46.6834 336.786L45.6255 338.643L44.6997 336.786L42.9805 335.858L44.6997 334.93L45.6255 333.074Z" fill="#FFF9F3"/>
    <path d="M23.9371 158.316L27.6401 164.946L34.1203 168.526L27.6401 172.106L23.9371 178.735L20.3664 172.106L13.7539 168.526L20.3664 164.946L23.9371 158.316Z" fill="#FFF9F3"/>
    <path d="M425.181 311.726L428.752 318.356L435.364 321.936L428.752 325.516L425.181 332.146L421.478 325.516L414.998 321.936L421.478 318.356L425.181 311.726Z" fill="#FFF9F3"/>
    <path d="M334.855 4.64076L338.426 11.2704L345.038 14.8504L338.426 18.4304L334.855 25.0601L331.284 18.4304L324.672 14.8504L331.284 11.2704L334.855 4.64076Z" fill="#FFF9F3"/>
    <path d="M102.89 27.4468L106.461 34.0764L113.073 37.6564L106.461 41.2364L102.89 47.8661L99.3195 41.2364L92.707 37.6564L99.3195 34.0764L102.89 27.4468Z" fill="#FFF9F3"/>
    <path d="M50.783 194.116L52.5023 197.033L55.4117 198.757L52.5023 200.348L50.783 203.398L49.196 200.348L46.1543 198.757L49.196 197.033L50.783 194.116Z" fill="#FFF9F3"/>
    <path d="M454.408 160.438L455.995 163.355L459.037 165.078L455.995 166.669L454.408 169.719L452.689 166.669L449.779 165.078L452.689 163.355L454.408 160.438Z" fill="#FFF9F3"/>
    <path d="M142.961 61.5232L144.548 64.5728L147.589 66.1639L144.548 67.7551L142.961 70.8047L141.374 67.7551L138.332 66.1639L141.374 64.5728L142.961 61.5232Z" fill="#FFF9F3"/>
    <path d="M345.039 57.8106L346.758 60.8602L349.668 62.4513L346.758 64.175L345.039 67.0921L343.452 64.175L340.41 62.4513L343.452 60.8602L345.039 57.8106Z" fill="#FFF9F3"/>
    <path d="M93.7638 258.689C93.7638 258.689 83.1839 278.048 112.279 293.296C112.279 293.296 84.1096 293.296 75.9102 268.501L93.7638 258.689Z" fill="#53CA6C"/>
    <path d="M115.057 278.578H56.6024C52.6349 278.578 49.4609 275.396 49.4609 271.418V240.922C49.4609 236.944 52.6349 233.762 56.6024 233.762H115.057C119.024 233.762 122.198 236.944 122.198 240.922V271.418C122.198 275.396 119.024 278.578 115.057 278.578Z" fill="#53CA6C"/>
    <path d="M77.3659 269.297H8.46396C3.83523 269.297 0 265.451 0 260.811V224.878C0 220.237 3.83523 216.392 8.46396 216.392H77.3659C81.9946 216.392 85.8298 220.237 85.8298 224.878V260.811C85.8298 265.451 81.9946 269.297 77.3659 269.297Z" fill="#E9E9E9"/>
    <path d="M466.443 121.986H380.614C377.572 121.986 375.191 119.466 375.191 116.549V66.6943C375.191 63.6447 377.704 61.258 380.614 61.258H466.443C469.485 61.258 471.866 63.7773 471.866 66.6943V116.417C471.866 119.599 469.485 121.986 466.443 121.986Z" fill="#FCC560"/>
    <path d="M487.604 232.038L488.133 282.821C488.133 286.799 484.959 290.114 480.991 290.114L389.475 290.909C385.507 290.909 382.201 287.727 382.201 283.749L381.672 232.966C381.672 228.988 384.846 225.673 388.813 225.673L480.33 224.878C484.165 224.878 487.471 228.06 487.604 232.038Z" fill="white"/>
    <g opacity="0.48">
        <path d="M487.736 248.214L488.001 282.821C488.001 286.799 484.827 290.114 480.859 290.114L389.343 290.909C385.375 290.909 382.069 287.727 382.069 283.749L381.805 245.695L437.349 274.202L487.736 248.214Z" fill="#E8E8CD"/>
    </g>
    <path d="M381.672 245.828L416.718 263.86L381.936 285.208L381.672 245.828Z" fill="#E8E8CD"/>
    <path d="M487.338 248.479L454.408 265.982L487.735 283.882L487.338 248.479Z" fill="#E8E8CD"/>
    <path d="M425.181 226.999C425.181 223.022 421.478 220.37 417.511 220.37C415.263 220.37 413.147 221.43 411.824 223.154C410.502 221.43 408.518 220.37 406.138 220.37C402.17 220.37 398.996 223.552 398.996 227.53C398.996 229.651 399.922 231.375 401.244 232.701C401.509 232.966 401.773 233.231 402.17 233.364L411.957 241.054V241.187H412.089H412.221V241.054C415.263 238.668 418.437 236.546 421.346 233.894C423.33 232.303 425.181 229.651 425.181 226.999Z" fill="#29953A"/>
    <path d="M462.08 191.862C462.08 189.343 459.699 187.619 457.054 187.619C455.599 187.619 454.277 188.282 453.351 189.475C452.558 188.415 451.235 187.619 449.648 187.619C447.136 187.619 445.02 189.741 445.02 192.26C445.02 193.586 445.549 194.779 446.474 195.707C446.607 195.84 446.871 195.973 447.003 196.238L453.351 201.276C455.335 199.685 457.451 198.359 459.302 196.636C460.757 195.31 462.08 193.586 462.08 191.862Z" fill="#29953A"/>
    <path d="M451.763 266.512C451.763 262.402 447.928 259.75 443.961 259.75C441.58 259.75 439.464 260.811 438.142 262.534C436.819 260.811 434.703 259.75 432.323 259.75C428.223 259.75 425.049 263.065 425.049 267.042C425.049 269.164 425.975 271.02 427.429 272.346C427.694 272.611 428.091 272.877 428.355 273.142L438.406 281.097V281.23H438.538H438.671V281.097C441.845 278.578 445.151 276.457 448.06 273.672C449.912 271.948 451.763 269.164 451.763 266.512Z" fill="#29953A"/>
    <path d="M90.5911 158.714C112.211 158.714 129.737 141.142 129.737 119.466C129.737 97.7905 112.211 80.2188 90.5911 80.2188C68.9715 80.2188 51.4453 97.7905 51.4453 119.466C51.4453 141.142 68.9715 158.714 90.5911 158.714Z" fill="#53CA6C"/>
    <path d="M90.7229 98.2515C102.096 98.2515 111.354 107.4 111.354 118.936C111.354 122.383 110.56 125.566 109.238 128.35C109.106 128.483 107.386 131.798 103.816 132.858C103.419 132.991 103.022 132.991 102.625 132.991C101.038 132.991 99.9804 132.328 99.3191 131.4C98.7901 130.472 98.3934 129.543 98.3934 128.615V126.626C96.4096 128.748 93.8969 130.206 90.8552 130.206C85.0362 130.206 80.2752 125.168 80.2752 119.069C80.2752 113.102 85.0362 108.063 90.8552 108.063C96.6741 108.063 101.303 113.102 101.303 119.069V119.599V119.864V128.483C101.303 128.88 101.435 129.411 101.7 129.809C101.832 130.074 102.229 130.206 102.758 130.206H103.287C105.006 129.809 106.461 127.687 106.725 127.157C108.048 124.77 108.709 121.986 108.709 119.069C108.709 109.389 100.642 101.301 90.9874 101.301C81.201 101.301 73.266 109.389 73.266 119.069C73.266 128.88 81.3332 136.836 90.9874 136.836C92.5744 136.836 93.8969 136.836 95.3516 136.306C96.1451 136.173 96.9386 136.438 96.9386 137.366C97.2031 138.162 96.6741 138.958 95.8806 139.09C94.2937 139.488 92.5744 139.753 90.8552 139.753C79.3495 139.753 70.2243 130.604 70.2243 119.069C69.9598 107.533 79.2172 98.2515 90.7229 98.2515ZM90.7229 127.024C94.8227 127.024 98.2611 123.444 98.2611 118.936C98.2611 114.428 94.8227 110.848 90.7229 110.848C86.6232 110.848 83.1847 114.56 83.1847 118.936C83.1847 123.577 86.4909 127.024 90.7229 127.024Z" fill="#F8FBF2"/>
    <path d="M57.3965 245.828C57.3965 243.308 59.5125 241.187 62.0252 241.187C64.538 241.187 66.654 243.308 66.654 245.828C66.654 248.347 64.538 250.468 62.0252 250.468C59.5125 250.336 57.3965 248.347 57.3965 245.828ZM36.2366 245.828C36.2366 243.308 38.3526 241.187 40.8654 241.187C43.3781 241.187 45.4941 243.308 45.4941 245.828C45.4941 248.347 43.3781 250.468 40.8654 250.468C38.3526 250.336 36.2366 248.347 36.2366 245.828ZM15.209 245.828C15.209 243.308 17.325 241.187 19.8377 241.187C22.3504 241.187 24.4664 243.308 24.4664 245.828C24.4664 248.347 22.3504 250.468 19.8377 250.468C17.1927 250.336 15.209 248.347 15.209 245.828Z" fill="#3D312C"/>
    <path d="M33.724 252.457C33.724 252.457 46.5522 276.059 11.1094 294.887C11.1094 294.887 45.4942 294.887 55.6774 264.656L33.724 252.457Z" fill="#E9E9E9"/>
    <path d="M247.835 137.632C210.011 137.632 179.197 106.737 179.197 68.8158C179.197 30.8942 210.011 0 247.835 0C285.658 0 316.472 30.8942 316.472 68.8158C316.472 106.737 285.658 137.632 247.835 137.632ZM247.835 8.75114C214.772 8.75114 187.793 35.8001 187.793 68.9484C187.793 102.097 214.772 129.146 247.835 129.146C280.897 129.146 307.876 102.097 307.876 68.9484C307.876 35.8001 280.897 8.75114 247.835 8.75114Z" fill="#E9E9E9"/>
    <path d="M249.819 136.571C239.239 136.571 229.453 129.278 222.179 116.019C215.302 103.423 211.467 86.5833 211.467 68.8158C211.467 51.0483 215.302 34.3416 222.179 21.6127C229.32 8.35336 239.239 1.06075 249.819 1.06075C260.399 1.06075 270.186 8.35336 277.459 21.6127C284.336 34.209 288.171 51.0483 288.171 68.8158C288.171 86.5833 284.336 103.29 277.459 116.019C270.186 129.278 260.399 136.571 249.819 136.571ZM249.819 7.55781C241.752 7.55781 233.949 13.6571 227.866 24.7949C221.518 36.4631 217.947 52.1091 217.947 68.8158C217.947 85.5225 221.518 101.169 227.866 112.837C233.949 123.975 241.752 130.074 249.819 130.074C257.886 130.074 265.689 123.975 271.772 112.837C278.12 101.169 281.691 85.5225 281.691 68.8158C281.691 52.1091 278.12 36.4631 271.772 24.7949C265.821 13.6571 258.019 7.55781 249.819 7.55781Z" fill="#E9E9E9"/>
    <path d="M249.951 136.04C248.496 136.04 247.174 134.847 247.174 133.256V4.37556C247.174 2.91704 248.364 1.59111 249.951 1.59111C251.406 1.59111 252.728 2.78445 252.728 4.37556V133.389C252.728 134.847 251.538 136.04 249.951 136.04Z" fill="#E9E9E9"/>
    <path d="M312.108 71.6003H183.43C181.975 71.6003 180.652 70.4069 180.652 68.8158C180.652 67.3573 181.843 66.0313 183.43 66.0313H312.108C313.563 66.0313 314.885 67.2247 314.885 68.8158C314.885 70.4069 313.695 71.6003 312.108 71.6003Z" fill="#E9E9E9"/>
    <path d="M190.043 58.6061C203.263 58.6061 213.98 47.8613 213.98 34.6068C213.98 21.3523 203.263 10.6075 190.043 10.6075C176.822 10.6075 166.105 21.3523 166.105 34.6068C166.105 47.8613 176.822 58.6061 190.043 58.6061Z" fill="#53CA6C"/>
    <path d="M174.438 43.7557L183.166 35.8001C184.224 34.872 184.753 33.546 184.753 32.2201C184.753 31.0268 184.356 29.966 183.431 29.0379C182.505 27.9771 181.182 27.4468 179.86 27.4468C178.67 27.4468 177.479 27.8445 176.554 28.6401L175.628 29.4357C175.364 29.7008 174.967 29.7008 174.702 29.4357C174.438 29.1705 174.438 28.7727 174.702 28.5075L175.628 27.7119C176.818 26.6512 178.273 26.1208 179.728 26.1208C181.315 26.1208 183.034 26.7838 184.224 28.1097C185.282 29.3031 185.811 30.7616 185.811 32.2201C185.811 33.9438 185.15 35.5349 183.827 36.7283L176.289 43.4905H185.15C185.547 43.4905 185.811 43.7557 185.811 44.1535C185.811 44.5513 185.547 44.8165 185.15 44.8165H174.702H174.57C174.438 44.8165 174.173 44.8165 174.041 44.6839C174.173 44.5513 174.173 44.0209 174.438 43.7557Z" fill="#F8FBF2"/>
    <path d="M201.682 41.1038H191.499C191.366 41.1038 191.234 41.1038 191.102 40.9713C190.837 40.7061 190.837 40.3083 190.97 40.0431L201.814 26.5186C202.079 26.2534 202.475 26.2534 202.74 26.386C202.872 26.5186 202.872 26.6512 203.004 26.6512V26.7838V26.9164V39.7779H204.327C204.724 39.7779 204.988 40.0431 204.988 40.4409C204.988 40.8387 204.724 41.1038 204.327 41.1038H203.004V44.2861C203.004 44.6839 202.74 44.949 202.343 44.949C201.946 44.949 201.682 44.6839 201.682 44.2861V41.1038ZM201.682 39.7779V28.7727L192.821 39.7779H201.682Z" fill="#F8FBF2"/>
    <path d="M101.7 201.144C105.864 201.144 109.239 197.76 109.239 193.586C109.239 189.412 105.864 186.028 101.7 186.028C97.5371 186.028 94.1621 189.412 94.1621 193.586C94.1621 197.76 97.5371 201.144 101.7 201.144Z" fill="#E9E9E9"/>
    <path d="M327.318 149.963C331.481 149.963 334.856 146.579 334.856 142.405C334.856 138.231 331.481 134.847 327.318 134.847C323.154 134.847 319.779 138.231 319.779 142.405C319.779 146.579 323.154 149.963 327.318 149.963Z" fill="#E9E9E9"/>
    <path d="M396.88 199.553C401.043 199.553 404.418 196.169 404.418 191.995C404.418 187.821 401.043 184.437 396.88 184.437C392.717 184.437 389.342 187.821 389.342 191.995C389.342 196.169 392.717 199.553 396.88 199.553Z" fill="#E9E9E9"/>
    <path d="M146.003 281.097C150.166 281.097 153.541 277.714 153.541 273.54C153.541 269.365 150.166 265.982 146.003 265.982C141.84 265.982 138.465 269.365 138.465 273.54C138.465 277.714 141.84 281.097 146.003 281.097Z" fill="#E9E9E9"/>
    <path d="M166.105 151.819C170.268 151.819 173.643 148.435 173.643 144.261C173.643 140.087 170.268 136.703 166.105 136.703C161.941 136.703 158.566 140.087 158.566 144.261C158.566 148.435 161.941 151.819 166.105 151.819Z" fill="#E9E9E9"/>
    <path d="M417.511 109.522C417.114 100.903 409.973 94.0085 401.377 94.0085C392.648 94.0085 385.507 100.903 385.242 109.522H417.511Z" fill="#53CA6C"/>
    <path d="M458.508 83.401H427.032C425.181 83.401 423.594 81.8099 423.594 79.9536C423.594 78.0973 425.181 76.5062 427.032 76.5062H458.508C460.359 76.5062 461.946 78.0973 461.946 79.9536C462.078 81.8099 460.491 83.401 458.508 83.401Z" fill="white"/>
    <path d="M458.508 96.6603H427.032C425.181 96.6603 423.594 95.0692 423.594 93.2129C423.594 91.3566 425.181 89.7655 427.032 89.7655H458.508C460.359 89.7655 461.946 91.3566 461.946 93.2129C462.078 95.0692 460.491 96.6603 458.508 96.6603Z" fill="white"/>
    <path d="M458.508 109.92H427.032C425.181 109.92 423.594 108.329 423.594 106.472C423.594 104.616 425.181 103.025 427.032 103.025H458.508C460.359 103.025 461.946 104.616 461.946 106.472C462.078 108.329 460.491 109.92 458.508 109.92Z" fill="white"/>
    <path d="M400.848 91.7544C405.668 91.7544 409.576 87.8364 409.576 83.0033C409.576 78.1701 405.668 74.2521 400.848 74.2521C396.027 74.2521 392.119 78.1701 392.119 83.0033C392.119 87.8364 396.027 91.7544 400.848 91.7544Z" fill="#53CA6C"/>
    <path d="M217.154 209.63C217.154 224.48 205.119 236.546 190.307 236.546H163.593C148.781 236.546 136.746 224.48 136.746 209.63V203.398C136.746 188.547 148.781 176.481 163.593 176.481H190.307C205.119 176.481 217.154 188.547 217.154 203.398V209.63Z" fill="#29953A"/>
    <path d="M317.927 176.614H181.182V207.508H317.927V176.614Z" fill="#29953A"/>
    <path d="M367.521 209.63C367.521 224.48 355.486 236.546 340.674 236.546H313.96C299.148 236.546 287.113 224.48 287.113 209.63V203.398C287.113 188.547 299.148 176.481 313.96 176.481H340.674C355.486 176.481 367.521 188.547 367.521 203.398V209.63Z" fill="#29953A"/>
    <path d="M366.198 349.648H138.465C138.465 286.666 189.381 235.485 252.332 235.485C315.15 235.485 366.198 286.534 366.198 349.648Z" fill="#29953A"/>
    <path d="M244.398 258.159C244.398 262.269 240.959 265.717 236.859 265.717H236.595C232.495 265.717 229.057 262.269 229.057 258.159V228.723C229.057 224.613 232.495 221.165 236.595 221.165H236.859C240.959 221.165 244.398 224.613 244.398 228.723V258.159Z" fill="#29953A"/>
    <path d="M275.212 258.159C275.212 262.269 271.774 265.717 267.674 265.717H267.409C263.31 265.717 259.871 262.269 259.871 258.159V228.723C259.871 224.613 263.31 221.165 267.409 221.165H267.674C271.774 221.165 275.212 224.613 275.212 228.723V258.159Z" fill="#29953A"/>
    <path d="M254.051 345.803C283.413 345.803 307.215 321.938 307.215 292.5C307.215 263.062 283.413 239.198 254.051 239.198C224.689 239.198 200.887 263.062 200.887 292.5C200.887 321.938 224.689 345.803 254.051 345.803Z" fill="#E9E9E9"/>
    <path d="M247.175 332.676C247.175 328.831 250.217 325.781 254.052 325.781C257.887 325.781 260.929 328.831 260.929 332.676C260.929 336.521 257.887 339.571 254.052 339.571C250.217 339.571 247.175 336.521 247.175 332.676ZM220.857 325.914C218.212 323.262 218.212 318.886 220.857 316.234C223.502 313.583 227.867 313.583 230.512 316.234C233.157 318.886 233.157 323.262 230.512 325.914C229.189 327.24 227.47 327.903 225.618 327.903C223.899 327.903 222.18 327.24 220.857 325.914ZM277.46 325.781C274.815 323.129 274.815 318.754 277.46 316.102C280.105 313.45 284.469 313.45 287.114 316.102C289.759 318.754 289.759 323.129 287.114 325.781C285.792 327.107 284.073 327.77 282.221 327.77C280.634 327.77 278.783 327.107 277.46 325.781ZM207.104 292.633C207.104 288.788 210.145 285.738 213.98 285.738C217.816 285.738 220.857 288.788 220.857 292.633C220.857 296.478 217.816 299.528 213.98 299.528C210.145 299.528 207.104 296.346 207.104 292.633ZM287.247 292.633C287.247 292.5 287.247 292.5 287.247 292.633C287.247 288.788 290.288 285.605 294.124 285.605C297.959 285.605 301.001 288.655 301.001 292.5C301.001 296.346 297.959 299.395 294.124 299.395C290.288 299.395 287.247 296.346 287.247 292.633ZM220.857 269.031C218.212 266.379 218.212 262.004 220.857 259.352C223.502 256.7 227.867 256.7 230.512 259.352C233.157 262.004 233.157 266.379 230.512 269.031C229.189 270.357 227.47 271.02 225.618 271.02C223.899 271.02 222.18 270.357 220.857 269.031ZM277.46 269.031C274.815 266.379 274.815 262.004 277.46 259.352C280.105 256.7 284.469 256.7 287.114 259.352C289.759 262.004 289.759 266.379 287.114 269.031C285.792 270.357 284.073 271.02 282.221 271.02C280.502 271.02 278.783 270.357 277.46 269.031ZM247.043 252.457C247.043 248.612 250.085 245.562 253.92 245.562C257.755 245.562 260.797 248.612 260.797 252.457C260.797 256.302 257.755 259.352 253.92 259.352C250.217 259.219 247.043 256.17 247.043 252.457Z" fill="#3D312C"/>
    <path d="M254.05 313.848C266.248 313.848 276.136 303.934 276.136 291.705C276.136 279.475 266.248 269.562 254.05 269.562C241.853 269.562 231.965 279.475 231.965 291.705C231.965 303.934 241.853 313.848 254.05 313.848Z" fill="#53CA6C"/>
    <path d="M214.905 303.506H186.868C181.446 303.506 176.949 298.997 176.949 293.561C176.949 288.125 181.446 283.617 186.868 283.617H214.905C220.327 283.617 224.823 288.125 224.823 293.561C224.823 298.997 220.327 303.506 214.905 303.506Z" fill="#E8E8CD"/>
    <path d="M393.706 364.764H110.957C107.916 364.764 105.535 362.244 105.535 359.327V351.504C105.535 348.455 108.048 346.068 110.957 346.068H393.706C396.748 346.068 399.129 348.587 399.129 351.504V359.327C399.129 362.377 396.748 364.764 393.706 364.764Z" fill="#FCC560"/>
    <path d="M375.192 364.764H127.754V406H375.192V364.764Z" fill="#EAAA42"/>
</svg>
