<svg width="121" height="67" viewBox="0 0 121 67" fill="none" xmlns="http://www.w3.org/2000/svg">
    <path fill-rule="evenodd" clip-rule="evenodd" d="M0 39.7843C0 57.6533 14.3867 66.0956 27.6755 66.3606C37.586 66.5582 43.7941 65.7828 50.2021 63.3445L50.2021 63.332H50.227V63.3305H50.2922V44.9913H57.9671V38.9779H35.0918V44.9913H42.7667V61.1718C37.5311 62.5242 32.3699 63.7695 24.1924 61.2876C12.3423 57.6911 7.95994 38.7243 12.2666 33.1214C15.7875 28.5405 23.5488 29.0706 32.2187 29.9034C51.7408 31.7788 60.1691 18.8221 61.4431 0.449842C61.4694 0.0700536 60.9211 -0.148327 60.6479 0.116785C59.7819 0.957015 58.4632 1.97121 56.8275 2.87287C55.0344 3.86137 51.7535 3.69822 49.0183 3.56221C48.1499 3.51903 47.3366 3.47858 46.6433 3.47858C41.3934 3.21358 28.728 3.65273 20.0657 7.52938C9.23779 12.3752 0 21.9154 0 39.7843Z" fill="#23BD3C"/>
    <path fill-rule="evenodd" clip-rule="evenodd" d="M43.69 11.5801C43.69 12.148 44.8257 12.678 46.8322 13.1701C49.1793 13.7459 52.8916 13.7747 54.9336 12.148C56.6856 10.7523 57.7854 8.32394 58.6533 6.21498C58.7789 5.90979 58.3322 5.61985 58.0941 5.84837C56.9107 6.98417 55.3037 8.31295 53.6465 9.19505C50.7018 10.7624 47.742 10.7535 45.8602 10.7479C45.7514 10.7475 45.6463 10.7472 45.545 10.7472C44.061 10.7472 43.69 11.0122 43.69 11.5801ZM35.399 14.0788C33.1488 14.5233 30.9093 15.3104 29.527 16.2762C28.6768 16.8702 29.2415 17.7692 30.2776 17.7191C31.4785 17.661 32.9221 17.6354 34.036 17.8267C36.2946 18.2146 38.0498 18.8525 39.6923 19.4495C41.8255 20.2248 43.7688 20.9311 46.3783 20.9311C50.4801 20.9311 53.3728 18.498 54.8211 16.6845C55.3959 15.9647 54.7529 15.2914 53.8516 15.4816C52.782 15.7074 51.4777 15.8795 50.2577 15.8795C49.2111 15.8795 47.4811 15.5192 45.5035 15.1073C42.1362 14.4059 38.0508 13.555 35.399 14.0788ZM24.6466 19.7953C21.9533 20.2693 19.688 22.4127 18.4093 24.2055C17.7946 25.0673 18.4658 26.0798 19.5243 26.0798H23.5865C24.3647 26.0798 25.8146 26.1995 27.6045 26.3473L27.6046 26.3473C32.2589 26.7317 39.212 27.3059 42.63 26.4583C44.8002 25.9201 46.3982 24.9416 47.3811 24.0475C48.0485 23.4405 47.4631 22.787 46.5791 22.9674C45.3222 23.2241 43.7114 23.4297 42.2135 23.4297C40.9563 23.4297 38.6871 22.7315 36.1103 21.9386C32.1691 20.7259 27.5081 19.2917 24.6466 19.7953Z" fill="#D0FF2D"/>
    <path d="M76.2447 56.8575H62.6793C62.8012 58.0586 63.0949 58.9533 63.5604 59.5416C64.2143 60.3873 65.0677 60.8101 66.1205 60.8101C66.7855 60.8101 67.4172 60.6263 68.0157 60.2586C68.3814 60.0257 68.7749 59.6151 69.196 59.0268L75.8624 59.707C74.8427 61.668 73.6126 63.0775 72.1718 63.9354C70.731 64.7811 68.6641 65.2039 65.9709 65.2039C63.6324 65.2039 61.7927 64.8424 60.4517 64.1193C59.1106 63.3839 57.9968 62.2257 57.1102 60.6446C56.2346 59.0513 55.7969 57.1823 55.7969 55.0374C55.7969 51.9857 56.678 49.5161 58.4401 47.6286C60.2134 45.7412 62.6572 44.7974 65.7714 44.7974C68.2983 44.7974 70.2932 45.2203 71.7562 46.0659C73.2191 46.9116 74.3329 48.1372 75.0977 49.7428C75.8624 51.3483 76.2447 53.438 76.2447 56.0118V56.8575ZM69.3623 53.2726C69.2293 51.8263 68.8746 50.7907 68.2983 50.1656C67.7331 49.5406 66.985 49.228 66.0541 49.228C64.979 49.228 64.1201 49.6999 63.4773 50.6436C63.0672 51.2319 62.8068 52.1082 62.6959 53.2726H69.3623Z" fill="#23BD3C"/>
    <path d="M92.1794 57.1332L98.613 57.9422C98.2584 59.4251 97.6765 60.712 96.8675 61.8028C96.0584 62.8814 95.0222 63.7209 93.7587 64.3215C92.5064 64.922 90.9104 65.2223 88.9709 65.2223C87.0979 65.2223 85.5353 65.0323 84.2829 64.6524C83.0416 64.2602 81.9721 63.6351 81.0744 62.7772C80.1767 61.907 79.4729 60.8898 78.9631 59.7254C78.4533 58.5611 78.1984 57.0168 78.1984 55.0926C78.1984 53.0826 78.5087 51.4096 79.1294 50.0737C79.5838 49.0932 80.2044 48.2169 80.9913 47.4448C81.7782 46.6604 82.5872 46.0782 83.4184 45.6983C84.7373 45.0977 86.4274 44.7974 88.4888 44.7974C91.3704 44.7974 93.5648 45.3673 95.0721 46.5072C96.5904 47.647 97.6544 49.3138 98.2639 51.5077L91.8968 52.4453C91.6973 51.6119 91.3316 50.9868 90.7996 50.5701C90.2787 50.1411 89.575 49.9266 88.6883 49.9266C87.569 49.9266 86.6602 50.374 85.9619 51.2687C85.2748 52.1511 84.9312 53.4932 84.9312 55.2948C84.9312 56.9004 85.2748 58.1199 85.9619 58.9533C86.6491 59.7867 87.5246 60.2034 88.5886 60.2034C89.4752 60.2034 90.2178 59.9522 90.8162 59.4497C91.4258 58.9472 91.8802 58.175 92.1794 57.1332Z" fill="#23BD3C"/>
    <path d="M101.381 37.8114H108.147V47.7389C109.067 46.6849 109.982 45.9311 110.89 45.4777C111.799 45.0242 112.874 44.7974 114.115 44.7974C115.955 44.7974 117.402 45.4164 118.454 46.6542C119.518 47.8921 120.05 49.7918 120.05 52.3534V64.7627H113.251V54.0263C113.251 52.8007 113.046 51.9366 112.636 51.4341C112.226 50.9194 111.65 50.662 110.907 50.662C110.087 50.662 109.422 51.0052 108.912 51.6915C108.402 52.3779 108.147 53.6096 108.147 55.3867V64.7627H101.381V37.8114Z" fill="#23BD3C"/>
</svg>
